<?xml version="1.0" standalone="no"?>
<svg xmlns="http://www.w3.org/2000/svg" width="1024" height="1331" viewBox="0 0 1000 1300"><defs><clipPath id="clip-path-dot-color"><rect x="239" y="416" width="18" height="18" transform="rotate(0,248,425)"/><rect x="239" y="452" width="18" height="18" transform="rotate(0,248,461)"/><rect x="239" y="506" width="18" height="18" transform="rotate(0,248,515)"/><rect x="239" y="542" width="18" height="18" transform="rotate(0,248,551)"/><rect x="239" y="560" width="18" height="18" transform="rotate(0,248,569)"/><rect x="239" y="578" width="18" height="18" transform="rotate(0,248,587)"/><rect x="239" y="596" width="18" height="18" transform="rotate(0,248,605)"/><rect x="239" y="614" width="18" height="18" transform="rotate(0,248,623)"/><rect x="257" y="416" width="18" height="18" transform="rotate(0,266,425)"/><rect x="257" y="524" width="18" height="18" transform="rotate(0,266,533)"/><rect x="257" y="560" width="18" height="18" transform="rotate(0,266,569)"/><rect x="257" y="578" width="18" height="18" transform="rotate(0,266,587)"/><rect x="257" y="614" width="18" height="18" transform="rotate(0,266,623)"/><rect x="275" y="452" width="18" height="18" transform="rotate(0,284,461)"/><rect x="275" y="470" width="18" height="18" transform="rotate(0,284,479)"/><rect x="275" y="488" width="18" height="18" transform="rotate(0,284,497)"/><rect x="275" y="506" width="18" height="18" transform="rotate(0,284,515)"/><rect x="275" y="524" width="18" height="18" transform="rotate(0,284,533)"/><rect x="275" y="542" width="18" height="18" transform="rotate(0,284,551)"/><rect x="275" y="560" width="18" height="18" transform="rotate(0,284,569)"/><rect x="275" y="596" width="18" height="18" transform="rotate(0,284,605)"/><rect x="275" y="614" width="18" height="18" transform="rotate(0,284,623)"/><rect x="275" y="632" width="18" height="18" transform="rotate(0,284,641)"/><rect x="293" y="434" width="18" height="18" transform="rotate(0,302,443)"/><rect x="293" y="542" width="18" height="18" transform="rotate(0,302,551)"/><rect x="293" y="560" width="18" height="18" transform="rotate(0,302,569)"/><rect x="293" y="578" width="18" height="18" transform="rotate(0,302,587)"/><rect x="293" y="614" width="18" height="18" transform="rotate(0,302,623)"/><rect x="293" y="632" width="18" height="18" transform="rotate(0,302,641)"/><rect x="311" y="452" width="18" height="18" transform="rotate(0,320,461)"/><rect x="311" y="470" width="18" height="18" transform="rotate(0,320,479)"/><rect x="311" y="506" width="18" height="18" transform="rotate(0,320,515)"/><rect x="311" y="542" width="18" height="18" transform="rotate(0,320,551)"/><rect x="311" y="614" width="18" height="18" transform="rotate(0,320,623)"/><rect x="311" y="632" width="18" height="18" transform="rotate(0,320,641)"/><rect x="329" y="452" width="18" height="18" transform="rotate(0,338,461)"/><rect x="329" y="470" width="18" height="18" transform="rotate(0,338,479)"/><rect x="329" y="488" width="18" height="18" transform="rotate(0,338,497)"/><rect x="329" y="506" width="18" height="18" transform="rotate(0,338,515)"/><rect x="329" y="524" width="18" height="18" transform="rotate(0,338,533)"/><rect x="329" y="596" width="18" height="18" transform="rotate(0,338,605)"/><rect x="347" y="416" width="18" height="18" transform="rotate(0,356,425)"/><rect x="347" y="452" width="18" height="18" transform="rotate(0,356,461)"/><rect x="347" y="488" width="18" height="18" transform="rotate(0,356,497)"/><rect x="347" y="524" width="18" height="18" transform="rotate(0,356,533)"/><rect x="347" y="560" width="18" height="18" transform="rotate(0,356,569)"/><rect x="347" y="596" width="18" height="18" transform="rotate(0,356,605)"/><rect x="347" y="632" width="18" height="18" transform="rotate(0,356,641)"/><rect x="365" y="488" width="18" height="18" transform="rotate(0,374,497)"/><rect x="365" y="506" width="18" height="18" transform="rotate(0,374,515)"/><rect x="365" y="524" width="18" height="18" transform="rotate(0,374,533)"/><rect x="365" y="542" width="18" height="18" transform="rotate(0,374,551)"/><rect x="365" y="560" width="18" height="18" transform="rotate(0,374,569)"/><rect x="365" y="614" width="18" height="18" transform="rotate(0,374,623)"/><rect x="383" y="290" width="18" height="18" transform="rotate(0,392,299)"/><rect x="383" y="380" width="18" height="18" transform="rotate(0,392,389)"/><rect x="383" y="398" width="18" height="18" transform="rotate(0,392,407)"/><rect x="383" y="416" width="18" height="18" transform="rotate(0,392,425)"/><rect x="383" y="434" width="18" height="18" transform="rotate(0,392,443)"/><rect x="383" y="470" width="18" height="18" transform="rotate(0,392,479)"/><rect x="383" y="560" width="18" height="18" transform="rotate(0,392,569)"/><rect x="383" y="596" width="18" height="18" transform="rotate(0,392,605)"/><rect x="383" y="650" width="18" height="18" transform="rotate(0,392,659)"/><rect x="383" y="758" width="18" height="18" transform="rotate(0,392,767)"/><rect x="383" y="776" width="18" height="18" transform="rotate(0,392,785)"/><rect x="401" y="290" width="18" height="18" transform="rotate(0,410,299)"/><rect x="401" y="308" width="18" height="18" transform="rotate(0,410,317)"/><rect x="401" y="326" width="18" height="18" transform="rotate(0,410,335)"/><rect x="401" y="362" width="18" height="18" transform="rotate(0,410,371)"/><rect x="401" y="398" width="18" height="18" transform="rotate(0,410,407)"/><rect x="401" y="416" width="18" height="18" transform="rotate(0,410,425)"/><rect x="401" y="434" width="18" height="18" transform="rotate(0,410,443)"/><rect x="401" y="452" width="18" height="18" transform="rotate(0,410,461)"/><rect x="401" y="506" width="18" height="18" transform="rotate(0,410,515)"/><rect x="401" y="524" width="18" height="18" transform="rotate(0,410,533)"/><rect x="401" y="578" width="18" height="18" transform="rotate(0,410,587)"/><rect x="401" y="632" width="18" height="18" transform="rotate(0,410,641)"/><rect x="401" y="650" width="18" height="18" transform="rotate(0,410,659)"/><rect x="401" y="704" width="18" height="18" transform="rotate(0,410,713)"/><rect x="401" y="740" width="18" height="18" transform="rotate(0,410,749)"/><rect x="401" y="758" width="18" height="18" transform="rotate(0,410,767)"/><rect x="419" y="326" width="18" height="18" transform="rotate(0,428,335)"/><rect x="419" y="344" width="18" height="18" transform="rotate(0,428,353)"/><rect x="419" y="362" width="18" height="18" transform="rotate(0,428,371)"/><rect x="419" y="380" width="18" height="18" transform="rotate(0,428,389)"/><rect x="419" y="416" width="18" height="18" transform="rotate(0,428,425)"/><rect x="419" y="452" width="18" height="18" transform="rotate(0,428,461)"/><rect x="419" y="488" width="18" height="18" transform="rotate(0,428,497)"/><rect x="419" y="506" width="18" height="18" transform="rotate(0,428,515)"/><rect x="419" y="524" width="18" height="18" transform="rotate(0,428,533)"/><rect x="419" y="560" width="18" height="18" transform="rotate(0,428,569)"/><rect x="419" y="596" width="18" height="18" transform="rotate(0,428,605)"/><rect x="419" y="650" width="18" height="18" transform="rotate(0,428,659)"/><rect x="419" y="668" width="18" height="18" transform="rotate(0,428,677)"/><rect x="419" y="686" width="18" height="18" transform="rotate(0,428,695)"/><rect x="419" y="704" width="18" height="18" transform="rotate(0,428,713)"/><rect x="419" y="722" width="18" height="18" transform="rotate(0,428,731)"/><rect x="419" y="740" width="18" height="18" transform="rotate(0,428,749)"/><rect x="437" y="290" width="18" height="18" transform="rotate(0,446,299)"/><rect x="437" y="326" width="18" height="18" transform="rotate(0,446,335)"/><rect x="437" y="344" width="18" height="18" transform="rotate(0,446,353)"/><rect x="437" y="362" width="18" height="18" transform="rotate(0,446,371)"/><rect x="437" y="398" width="18" height="18" transform="rotate(0,446,407)"/><rect x="437" y="416" width="18" height="18" transform="rotate(0,446,425)"/><rect x="437" y="470" width="18" height="18" transform="rotate(0,446,479)"/><rect x="437" y="488" width="18" height="18" transform="rotate(0,446,497)"/><rect x="437" y="506" width="18" height="18" transform="rotate(0,446,515)"/><rect x="437" y="542" width="18" height="18" transform="rotate(0,446,551)"/><rect x="437" y="614" width="18" height="18" transform="rotate(0,446,623)"/><rect x="437" y="668" width="18" height="18" transform="rotate(0,446,677)"/><rect x="437" y="704" width="18" height="18" transform="rotate(0,446,713)"/><rect x="437" y="722" width="18" height="18" transform="rotate(0,446,731)"/><rect x="455" y="290" width="18" height="18" transform="rotate(0,464,299)"/><rect x="455" y="308" width="18" height="18" transform="rotate(0,464,317)"/><rect x="455" y="326" width="18" height="18" transform="rotate(0,464,335)"/><rect x="455" y="362" width="18" height="18" transform="rotate(0,464,371)"/><rect x="455" y="380" width="18" height="18" transform="rotate(0,464,389)"/><rect x="455" y="398" width="18" height="18" transform="rotate(0,464,407)"/><rect x="455" y="416" width="18" height="18" transform="rotate(0,464,425)"/><rect x="455" y="434" width="18" height="18" transform="rotate(0,464,443)"/><rect x="455" y="452" width="18" height="18" transform="rotate(0,464,461)"/><rect x="455" y="470" width="18" height="18" transform="rotate(0,464,479)"/><rect x="455" y="506" width="18" height="18" transform="rotate(0,464,515)"/><rect x="455" y="596" width="18" height="18" transform="rotate(0,464,605)"/><rect x="455" y="650" width="18" height="18" transform="rotate(0,464,659)"/><rect x="455" y="668" width="18" height="18" transform="rotate(0,464,677)"/><rect x="455" y="722" width="18" height="18" transform="rotate(0,464,731)"/><rect x="455" y="758" width="18" height="18" transform="rotate(0,464,767)"/><rect x="473" y="272" width="18" height="18" transform="rotate(0,482,281)"/><rect x="473" y="290" width="18" height="18" transform="rotate(0,482,299)"/><rect x="473" y="362" width="18" height="18" transform="rotate(0,482,371)"/><rect x="473" y="434" width="18" height="18" transform="rotate(0,482,443)"/><rect x="473" y="470" width="18" height="18" transform="rotate(0,482,479)"/><rect x="473" y="524" width="18" height="18" transform="rotate(0,482,533)"/><rect x="473" y="542" width="18" height="18" transform="rotate(0,482,551)"/><rect x="473" y="578" width="18" height="18" transform="rotate(0,482,587)"/><rect x="473" y="596" width="18" height="18" transform="rotate(0,482,605)"/><rect x="473" y="614" width="18" height="18" transform="rotate(0,482,623)"/><rect x="473" y="632" width="18" height="18" transform="rotate(0,482,641)"/><rect x="473" y="668" width="18" height="18" transform="rotate(0,482,677)"/><rect x="473" y="704" width="18" height="18" transform="rotate(0,482,713)"/><rect x="473" y="722" width="18" height="18" transform="rotate(0,482,731)"/><rect x="473" y="758" width="18" height="18" transform="rotate(0,482,767)"/><rect x="491" y="272" width="18" height="18" transform="rotate(0,500,281)"/><rect x="491" y="290" width="18" height="18" transform="rotate(0,500,299)"/><rect x="491" y="326" width="18" height="18" transform="rotate(0,500,335)"/><rect x="491" y="380" width="18" height="18" transform="rotate(0,500,389)"/><rect x="491" y="398" width="18" height="18" transform="rotate(0,500,407)"/><rect x="491" y="452" width="18" height="18" transform="rotate(0,500,461)"/><rect x="491" y="488" width="18" height="18" transform="rotate(0,500,497)"/><rect x="491" y="506" width="18" height="18" transform="rotate(0,500,515)"/><rect x="491" y="578" width="18" height="18" transform="rotate(0,500,587)"/><rect x="491" y="632" width="18" height="18" transform="rotate(0,500,641)"/><rect x="491" y="650" width="18" height="18" transform="rotate(0,500,659)"/><rect x="491" y="686" width="18" height="18" transform="rotate(0,500,695)"/><rect x="509" y="272" width="18" height="18" transform="rotate(0,518,281)"/><rect x="509" y="308" width="18" height="18" transform="rotate(0,518,317)"/><rect x="509" y="326" width="18" height="18" transform="rotate(0,518,335)"/><rect x="509" y="344" width="18" height="18" transform="rotate(0,518,353)"/><rect x="509" y="398" width="18" height="18" transform="rotate(0,518,407)"/><rect x="509" y="416" width="18" height="18" transform="rotate(0,518,425)"/><rect x="509" y="434" width="18" height="18" transform="rotate(0,518,443)"/><rect x="509" y="524" width="18" height="18" transform="rotate(0,518,533)"/><rect x="509" y="542" width="18" height="18" transform="rotate(0,518,551)"/><rect x="509" y="578" width="18" height="18" transform="rotate(0,518,587)"/><rect x="509" y="596" width="18" height="18" transform="rotate(0,518,605)"/><rect x="509" y="632" width="18" height="18" transform="rotate(0,518,641)"/><rect x="509" y="668" width="18" height="18" transform="rotate(0,518,677)"/><rect x="509" y="704" width="18" height="18" transform="rotate(0,518,713)"/><rect x="509" y="722" width="18" height="18" transform="rotate(0,518,731)"/><rect x="509" y="740" width="18" height="18" transform="rotate(0,518,749)"/><rect x="509" y="758" width="18" height="18" transform="rotate(0,518,767)"/><rect x="509" y="776" width="18" height="18" transform="rotate(0,518,785)"/><rect x="527" y="272" width="18" height="18" transform="rotate(0,536,281)"/><rect x="527" y="290" width="18" height="18" transform="rotate(0,536,299)"/><rect x="527" y="344" width="18" height="18" transform="rotate(0,536,353)"/><rect x="527" y="362" width="18" height="18" transform="rotate(0,536,371)"/><rect x="527" y="380" width="18" height="18" transform="rotate(0,536,389)"/><rect x="527" y="416" width="18" height="18" transform="rotate(0,536,425)"/><rect x="527" y="470" width="18" height="18" transform="rotate(0,536,479)"/><rect x="527" y="506" width="18" height="18" transform="rotate(0,536,515)"/><rect x="527" y="542" width="18" height="18" transform="rotate(0,536,551)"/><rect x="527" y="560" width="18" height="18" transform="rotate(0,536,569)"/><rect x="527" y="632" width="18" height="18" transform="rotate(0,536,641)"/><rect x="527" y="704" width="18" height="18" transform="rotate(0,536,713)"/><rect x="527" y="722" width="18" height="18" transform="rotate(0,536,731)"/><rect x="527" y="740" width="18" height="18" transform="rotate(0,536,749)"/><rect x="527" y="758" width="18" height="18" transform="rotate(0,536,767)"/><rect x="545" y="272" width="18" height="18" transform="rotate(0,554,281)"/><rect x="545" y="308" width="18" height="18" transform="rotate(0,554,317)"/><rect x="545" y="362" width="18" height="18" transform="rotate(0,554,371)"/><rect x="545" y="398" width="18" height="18" transform="rotate(0,554,407)"/><rect x="545" y="416" width="18" height="18" transform="rotate(0,554,425)"/><rect x="545" y="452" width="18" height="18" transform="rotate(0,554,461)"/><rect x="545" y="470" width="18" height="18" transform="rotate(0,554,479)"/><rect x="545" y="506" width="18" height="18" transform="rotate(0,554,515)"/><rect x="545" y="578" width="18" height="18" transform="rotate(0,554,587)"/><rect x="545" y="596" width="18" height="18" transform="rotate(0,554,605)"/><rect x="545" y="614" width="18" height="18" transform="rotate(0,554,623)"/><rect x="545" y="632" width="18" height="18" transform="rotate(0,554,641)"/><rect x="545" y="686" width="18" height="18" transform="rotate(0,554,695)"/><rect x="545" y="704" width="18" height="18" transform="rotate(0,554,713)"/><rect x="545" y="740" width="18" height="18" transform="rotate(0,554,749)"/><rect x="545" y="776" width="18" height="18" transform="rotate(0,554,785)"/><rect x="563" y="272" width="18" height="18" transform="rotate(0,572,281)"/><rect x="563" y="290" width="18" height="18" transform="rotate(0,572,299)"/><rect x="563" y="308" width="18" height="18" transform="rotate(0,572,317)"/><rect x="563" y="344" width="18" height="18" transform="rotate(0,572,353)"/><rect x="563" y="362" width="18" height="18" transform="rotate(0,572,371)"/><rect x="563" y="380" width="18" height="18" transform="rotate(0,572,389)"/><rect x="563" y="434" width="18" height="18" transform="rotate(0,572,443)"/><rect x="563" y="470" width="18" height="18" transform="rotate(0,572,479)"/><rect x="563" y="488" width="18" height="18" transform="rotate(0,572,497)"/><rect x="563" y="542" width="18" height="18" transform="rotate(0,572,551)"/><rect x="563" y="614" width="18" height="18" transform="rotate(0,572,623)"/><rect x="563" y="704" width="18" height="18" transform="rotate(0,572,713)"/><rect x="563" y="722" width="18" height="18" transform="rotate(0,572,731)"/><rect x="563" y="776" width="18" height="18" transform="rotate(0,572,785)"/><rect x="581" y="272" width="18" height="18" transform="rotate(0,590,281)"/><rect x="581" y="362" width="18" height="18" transform="rotate(0,590,371)"/><rect x="581" y="398" width="18" height="18" transform="rotate(0,590,407)"/><rect x="581" y="416" width="18" height="18" transform="rotate(0,590,425)"/><rect x="581" y="434" width="18" height="18" transform="rotate(0,590,443)"/><rect x="581" y="470" width="18" height="18" transform="rotate(0,590,479)"/><rect x="581" y="506" width="18" height="18" transform="rotate(0,590,515)"/><rect x="581" y="524" width="18" height="18" transform="rotate(0,590,533)"/><rect x="581" y="596" width="18" height="18" transform="rotate(0,590,605)"/><rect x="581" y="614" width="18" height="18" transform="rotate(0,590,623)"/><rect x="581" y="650" width="18" height="18" transform="rotate(0,590,659)"/><rect x="581" y="668" width="18" height="18" transform="rotate(0,590,677)"/><rect x="581" y="686" width="18" height="18" transform="rotate(0,590,695)"/><rect x="581" y="704" width="18" height="18" transform="rotate(0,590,713)"/><rect x="581" y="722" width="18" height="18" transform="rotate(0,590,731)"/><rect x="581" y="776" width="18" height="18" transform="rotate(0,590,785)"/><rect x="599" y="272" width="18" height="18" transform="rotate(0,608,281)"/><rect x="599" y="326" width="18" height="18" transform="rotate(0,608,335)"/><rect x="599" y="344" width="18" height="18" transform="rotate(0,608,353)"/><rect x="599" y="380" width="18" height="18" transform="rotate(0,608,389)"/><rect x="599" y="434" width="18" height="18" transform="rotate(0,608,443)"/><rect x="599" y="470" width="18" height="18" transform="rotate(0,608,479)"/><rect x="599" y="488" width="18" height="18" transform="rotate(0,608,497)"/><rect x="599" y="524" width="18" height="18" transform="rotate(0,608,533)"/><rect x="599" y="542" width="18" height="18" transform="rotate(0,608,551)"/><rect x="599" y="578" width="18" height="18" transform="rotate(0,608,587)"/><rect x="599" y="632" width="18" height="18" transform="rotate(0,608,641)"/><rect x="599" y="650" width="18" height="18" transform="rotate(0,608,659)"/><rect x="599" y="668" width="18" height="18" transform="rotate(0,608,677)"/><rect x="599" y="686" width="18" height="18" transform="rotate(0,608,695)"/><rect x="599" y="704" width="18" height="18" transform="rotate(0,608,713)"/><rect x="599" y="722" width="18" height="18" transform="rotate(0,608,731)"/><rect x="599" y="758" width="18" height="18" transform="rotate(0,608,767)"/><rect x="599" y="776" width="18" height="18" transform="rotate(0,608,785)"/><rect x="617" y="416" width="18" height="18" transform="rotate(0,626,425)"/><rect x="617" y="434" width="18" height="18" transform="rotate(0,626,443)"/><rect x="617" y="452" width="18" height="18" transform="rotate(0,626,461)"/><rect x="617" y="470" width="18" height="18" transform="rotate(0,626,479)"/><rect x="617" y="542" width="18" height="18" transform="rotate(0,626,551)"/><rect x="617" y="560" width="18" height="18" transform="rotate(0,626,569)"/><rect x="617" y="596" width="18" height="18" transform="rotate(0,626,605)"/><rect x="617" y="614" width="18" height="18" transform="rotate(0,626,623)"/><rect x="617" y="632" width="18" height="18" transform="rotate(0,626,641)"/><rect x="617" y="704" width="18" height="18" transform="rotate(0,626,713)"/><rect x="617" y="722" width="18" height="18" transform="rotate(0,626,731)"/><rect x="617" y="740" width="18" height="18" transform="rotate(0,626,749)"/><rect x="617" y="758" width="18" height="18" transform="rotate(0,626,767)"/><rect x="617" y="776" width="18" height="18" transform="rotate(0,626,785)"/><rect x="635" y="416" width="18" height="18" transform="rotate(0,644,425)"/><rect x="635" y="506" width="18" height="18" transform="rotate(0,644,515)"/><rect x="635" y="524" width="18" height="18" transform="rotate(0,644,533)"/><rect x="635" y="542" width="18" height="18" transform="rotate(0,644,551)"/><rect x="635" y="560" width="18" height="18" transform="rotate(0,644,569)"/><rect x="635" y="596" width="18" height="18" transform="rotate(0,644,605)"/><rect x="635" y="614" width="18" height="18" transform="rotate(0,644,623)"/><rect x="635" y="632" width="18" height="18" transform="rotate(0,644,641)"/><rect x="635" y="668" width="18" height="18" transform="rotate(0,644,677)"/><rect x="635" y="704" width="18" height="18" transform="rotate(0,644,713)"/><rect x="653" y="470" width="18" height="18" transform="rotate(0,662,479)"/><rect x="653" y="488" width="18" height="18" transform="rotate(0,662,497)"/><rect x="653" y="506" width="18" height="18" transform="rotate(0,662,515)"/><rect x="653" y="542" width="18" height="18" transform="rotate(0,662,551)"/><rect x="653" y="560" width="18" height="18" transform="rotate(0,662,569)"/><rect x="653" y="614" width="18" height="18" transform="rotate(0,662,623)"/><rect x="653" y="632" width="18" height="18" transform="rotate(0,662,641)"/><rect x="653" y="704" width="18" height="18" transform="rotate(0,662,713)"/><rect x="653" y="722" width="18" height="18" transform="rotate(0,662,731)"/><rect x="653" y="758" width="18" height="18" transform="rotate(0,662,767)"/><rect x="653" y="776" width="18" height="18" transform="rotate(0,662,785)"/><rect x="671" y="488" width="18" height="18" transform="rotate(0,680,497)"/><rect x="671" y="506" width="18" height="18" transform="rotate(0,680,515)"/><rect x="671" y="524" width="18" height="18" transform="rotate(0,680,533)"/><rect x="671" y="560" width="18" height="18" transform="rotate(0,680,569)"/><rect x="671" y="578" width="18" height="18" transform="rotate(0,680,587)"/><rect x="671" y="596" width="18" height="18" transform="rotate(0,680,605)"/><rect x="671" y="614" width="18" height="18" transform="rotate(0,680,623)"/><rect x="671" y="632" width="18" height="18" transform="rotate(0,680,641)"/><rect x="671" y="650" width="18" height="18" transform="rotate(0,680,659)"/><rect x="671" y="668" width="18" height="18" transform="rotate(0,680,677)"/><rect x="671" y="686" width="18" height="18" transform="rotate(0,680,695)"/><rect x="671" y="704" width="18" height="18" transform="rotate(0,680,713)"/><rect x="689" y="470" width="18" height="18" transform="rotate(0,698,479)"/><rect x="689" y="506" width="18" height="18" transform="rotate(0,698,515)"/><rect x="689" y="524" width="18" height="18" transform="rotate(0,698,533)"/><rect x="689" y="560" width="18" height="18" transform="rotate(0,698,569)"/><rect x="689" y="578" width="18" height="18" transform="rotate(0,698,587)"/><rect x="689" y="614" width="18" height="18" transform="rotate(0,698,623)"/><rect x="689" y="632" width="18" height="18" transform="rotate(0,698,641)"/><rect x="689" y="686" width="18" height="18" transform="rotate(0,698,695)"/><rect x="689" y="722" width="18" height="18" transform="rotate(0,698,731)"/><rect x="689" y="758" width="18" height="18" transform="rotate(0,698,767)"/><rect x="707" y="452" width="18" height="18" transform="rotate(0,716,461)"/><rect x="707" y="488" width="18" height="18" transform="rotate(0,716,497)"/><rect x="707" y="506" width="18" height="18" transform="rotate(0,716,515)"/><rect x="707" y="524" width="18" height="18" transform="rotate(0,716,533)"/><rect x="707" y="596" width="18" height="18" transform="rotate(0,716,605)"/><rect x="707" y="614" width="18" height="18" transform="rotate(0,716,623)"/><rect x="707" y="632" width="18" height="18" transform="rotate(0,716,641)"/><rect x="707" y="650" width="18" height="18" transform="rotate(0,716,659)"/><rect x="707" y="668" width="18" height="18" transform="rotate(0,716,677)"/><rect x="707" y="686" width="18" height="18" transform="rotate(0,716,695)"/><rect x="707" y="704" width="18" height="18" transform="rotate(0,716,713)"/><rect x="707" y="758" width="18" height="18" transform="rotate(0,716,767)"/><rect x="725" y="416" width="18" height="18" transform="rotate(0,734,425)"/><rect x="725" y="488" width="18" height="18" transform="rotate(0,734,497)"/><rect x="725" y="542" width="18" height="18" transform="rotate(0,734,551)"/><rect x="725" y="632" width="18" height="18" transform="rotate(0,734,641)"/><rect x="725" y="668" width="18" height="18" transform="rotate(0,734,677)"/><rect x="725" y="704" width="18" height="18" transform="rotate(0,734,713)"/><rect x="725" y="722" width="18" height="18" transform="rotate(0,734,731)"/><rect x="725" y="740" width="18" height="18" transform="rotate(0,734,749)"/><rect x="725" y="776" width="18" height="18" transform="rotate(0,734,785)"/><rect x="743" y="470" width="18" height="18" transform="rotate(0,752,479)"/><rect x="743" y="506" width="18" height="18" transform="rotate(0,752,515)"/><rect x="743" y="578" width="18" height="18" transform="rotate(0,752,587)"/><rect x="743" y="614" width="18" height="18" transform="rotate(0,752,623)"/><rect x="743" y="668" width="18" height="18" transform="rotate(0,752,677)"/><rect x="743" y="704" width="18" height="18" transform="rotate(0,752,713)"/><rect x="743" y="722" width="18" height="18" transform="rotate(0,752,731)"/><rect x="743" y="740" width="18" height="18" transform="rotate(0,752,749)"/></clipPath><clipPath id="clip-path-corners-square-color-0-0"><rect x="239" y="272" width="18" height="18" transform="rotate(0,248,281)"/><rect x="239" y="290" width="18" height="18" transform="rotate(0,248,299)"/><rect x="239" y="308" width="18" height="18" transform="rotate(0,248,317)"/><rect x="239" y="326" width="18" height="18" transform="rotate(0,248,335)"/><rect x="239" y="344" width="18" height="18" transform="rotate(0,248,353)"/><rect x="239" y="362" width="18" height="18" transform="rotate(0,248,371)"/><rect x="239" y="380" width="18" height="18" transform="rotate(0,248,389)"/><rect x="257" y="272" width="18" height="18" transform="rotate(0,266,281)"/><rect x="257" y="380" width="18" height="18" transform="rotate(0,266,389)"/><rect x="275" y="272" width="18" height="18" transform="rotate(0,284,281)"/><rect x="275" y="380" width="18" height="18" transform="rotate(0,284,389)"/><rect x="293" y="272" width="18" height="18" transform="rotate(0,302,281)"/><rect x="293" y="380" width="18" height="18" transform="rotate(0,302,389)"/><rect x="311" y="272" width="18" height="18" transform="rotate(0,320,281)"/><rect x="311" y="380" width="18" height="18" transform="rotate(0,320,389)"/><rect x="329" y="272" width="18" height="18" transform="rotate(0,338,281)"/><rect x="329" y="380" width="18" height="18" transform="rotate(0,338,389)"/><rect x="347" y="272" width="18" height="18" transform="rotate(0,356,281)"/><rect x="347" y="290" width="18" height="18" transform="rotate(0,356,299)"/><rect x="347" y="308" width="18" height="18" transform="rotate(0,356,317)"/><rect x="347" y="326" width="18" height="18" transform="rotate(0,356,335)"/><rect x="347" y="344" width="18" height="18" transform="rotate(0,356,353)"/><rect x="347" y="362" width="18" height="18" transform="rotate(0,356,371)"/><rect x="347" y="380" width="18" height="18" transform="rotate(0,356,389)"/></clipPath><clipPath id="clip-path-corners-dot-color-0-0"><rect x="275" y="308" width="18" height="18" transform="rotate(0,284,317)"/><rect x="275" y="326" width="18" height="18" transform="rotate(0,284,335)"/><rect x="275" y="344" width="18" height="18" transform="rotate(0,284,353)"/><rect x="293" y="308" width="18" height="18" transform="rotate(0,302,317)"/><rect x="293" y="326" width="18" height="18" transform="rotate(0,302,335)"/><rect x="293" y="344" width="18" height="18" transform="rotate(0,302,353)"/><rect x="311" y="308" width="18" height="18" transform="rotate(0,320,317)"/><rect x="311" y="326" width="18" height="18" transform="rotate(0,320,335)"/><rect x="311" y="344" width="18" height="18" transform="rotate(0,320,353)"/></clipPath><clipPath id="clip-path-corners-square-color-1-0"><rect x="635" y="272" width="18" height="18" transform="rotate(0,644,281)"/><rect x="635" y="290" width="18" height="18" transform="rotate(0,644,299)"/><rect x="635" y="308" width="18" height="18" transform="rotate(0,644,317)"/><rect x="635" y="326" width="18" height="18" transform="rotate(0,644,335)"/><rect x="635" y="344" width="18" height="18" transform="rotate(0,644,353)"/><rect x="635" y="362" width="18" height="18" transform="rotate(0,644,371)"/><rect x="635" y="380" width="18" height="18" transform="rotate(0,644,389)"/><rect x="653" y="272" width="18" height="18" transform="rotate(0,662,281)"/><rect x="653" y="380" width="18" height="18" transform="rotate(0,662,389)"/><rect x="671" y="272" width="18" height="18" transform="rotate(0,680,281)"/><rect x="671" y="380" width="18" height="18" transform="rotate(0,680,389)"/><rect x="689" y="272" width="18" height="18" transform="rotate(0,698,281)"/><rect x="689" y="380" width="18" height="18" transform="rotate(0,698,389)"/><rect x="707" y="272" width="18" height="18" transform="rotate(0,716,281)"/><rect x="707" y="380" width="18" height="18" transform="rotate(0,716,389)"/><rect x="725" y="272" width="18" height="18" transform="rotate(0,734,281)"/><rect x="725" y="380" width="18" height="18" transform="rotate(0,734,389)"/><rect x="743" y="272" width="18" height="18" transform="rotate(0,752,281)"/><rect x="743" y="290" width="18" height="18" transform="rotate(0,752,299)"/><rect x="743" y="308" width="18" height="18" transform="rotate(0,752,317)"/><rect x="743" y="326" width="18" height="18" transform="rotate(0,752,335)"/><rect x="743" y="344" width="18" height="18" transform="rotate(0,752,353)"/><rect x="743" y="362" width="18" height="18" transform="rotate(0,752,371)"/><rect x="743" y="380" width="18" height="18" transform="rotate(0,752,389)"/></clipPath><clipPath id="clip-path-corners-dot-color-1-0"><rect x="671" y="308" width="18" height="18" transform="rotate(0,680,317)"/><rect x="671" y="326" width="18" height="18" transform="rotate(0,680,335)"/><rect x="671" y="344" width="18" height="18" transform="rotate(0,680,353)"/><rect x="689" y="308" width="18" height="18" transform="rotate(0,698,317)"/><rect x="689" y="326" width="18" height="18" transform="rotate(0,698,335)"/><rect x="689" y="344" width="18" height="18" transform="rotate(0,698,353)"/><rect x="707" y="308" width="18" height="18" transform="rotate(0,716,317)"/><rect x="707" y="326" width="18" height="18" transform="rotate(0,716,335)"/><rect x="707" y="344" width="18" height="18" transform="rotate(0,716,353)"/></clipPath><clipPath id="clip-path-corners-square-color-0-1"><rect x="239" y="668" width="18" height="18" transform="rotate(0,248,677)"/><rect x="239" y="686" width="18" height="18" transform="rotate(0,248,695)"/><rect x="239" y="704" width="18" height="18" transform="rotate(0,248,713)"/><rect x="239" y="722" width="18" height="18" transform="rotate(0,248,731)"/><rect x="239" y="740" width="18" height="18" transform="rotate(0,248,749)"/><rect x="239" y="758" width="18" height="18" transform="rotate(0,248,767)"/><rect x="239" y="776" width="18" height="18" transform="rotate(0,248,785)"/><rect x="257" y="668" width="18" height="18" transform="rotate(0,266,677)"/><rect x="257" y="776" width="18" height="18" transform="rotate(0,266,785)"/><rect x="275" y="668" width="18" height="18" transform="rotate(0,284,677)"/><rect x="275" y="776" width="18" height="18" transform="rotate(0,284,785)"/><rect x="293" y="668" width="18" height="18" transform="rotate(0,302,677)"/><rect x="293" y="776" width="18" height="18" transform="rotate(0,302,785)"/><rect x="311" y="668" width="18" height="18" transform="rotate(0,320,677)"/><rect x="311" y="776" width="18" height="18" transform="rotate(0,320,785)"/><rect x="329" y="668" width="18" height="18" transform="rotate(0,338,677)"/><rect x="329" y="776" width="18" height="18" transform="rotate(0,338,785)"/><rect x="347" y="668" width="18" height="18" transform="rotate(0,356,677)"/><rect x="347" y="686" width="18" height="18" transform="rotate(0,356,695)"/><rect x="347" y="704" width="18" height="18" transform="rotate(0,356,713)"/><rect x="347" y="722" width="18" height="18" transform="rotate(0,356,731)"/><rect x="347" y="740" width="18" height="18" transform="rotate(0,356,749)"/><rect x="347" y="758" width="18" height="18" transform="rotate(0,356,767)"/><rect x="347" y="776" width="18" height="18" transform="rotate(0,356,785)"/></clipPath><clipPath id="clip-path-corners-dot-color-0-1"><rect x="275" y="704" width="18" height="18" transform="rotate(0,284,713)"/><rect x="275" y="722" width="18" height="18" transform="rotate(0,284,731)"/><rect x="275" y="740" width="18" height="18" transform="rotate(0,284,749)"/><rect x="293" y="704" width="18" height="18" transform="rotate(0,302,713)"/><rect x="293" y="722" width="18" height="18" transform="rotate(0,302,731)"/><rect x="293" y="740" width="18" height="18" transform="rotate(0,302,749)"/><rect x="311" y="704" width="18" height="18" transform="rotate(0,320,713)"/><rect x="311" y="722" width="18" height="18" transform="rotate(0,320,731)"/><rect x="311" y="740" width="18" height="18" transform="rotate(0,320,749)"/></clipPath></defs><rect x="0" y="0" height="1300" width="1000" clip-path="url('#clip-path-frame-background-color')" fill="#000000"/><defs/><path fill="#292fd6" d="M747.71,174.5l54.27-40H479.4c1.7,3.78,0.6,8.36-2.87,10.92l-39.45,29.08H747.71z"/>
			<path fill="#292fd6" d="M778.05,174.5H860v223.42l40-29.48V174.5c0-22.09-17.91-40-40-40h-27.68L778.05,174.5z"/>
			<path fill="#292fd6" d="M140,282.07V174.5h266.74l54.27-40H399l-49.49,36.48c-1.61,1.18-3.48,1.76-5.33,1.76c-2.76,0-5.49-1.27-7.25-3.66 c-2.95-4-2.1-9.64,1.91-12.58l29.83-21.99H198.71l-17.76,13.09c-1.61,1.18-3.48,1.76-5.33,1.76c-2.76,0-5.49-1.27-7.25-3.66 c-2.53-3.44-2.25-8.07,0.41-11.18H140c-22.09,0-40,17.91-40,40v137.06L140,282.07z"/>
			<path fill="#292fd6" d="M887.36,1066.27c-1.61,1.18-3.48,1.76-5.33,1.76c-2.76,0-5.49-1.27-7.25-3.66c-2.95-4-2.1-9.64,1.91-12.58l23.32-17.19 V894.5c0,0,0,0,0,0V787.19l-17.25,12.71c-1.61,1.18-3.48,1.76-5.33,1.76c-2.76,0-5.49-1.27-7.25-3.66 c-2.95-4-2.1-9.64,1.91-12.58L900,764.82v-47.87l-10.96,8.08c-1.61,1.18-3.48,1.76-5.33,1.76c-2.76,0-5.49-1.27-7.25-3.66 c-2.95-4-2.1-9.64,1.91-12.58L900,694.6V461.43l-1.7,1.26c-1.61,1.18-3.48,1.76-5.33,1.76c-2.76,0-5.49-1.27-7.25-3.66 c-2.95-4-2.1-9.64,1.91-12.58l12.38-9.13v-48.27l-40,29.48V894.5H140V304.43l-40,29.48v45.25l18.32-13.57 c3.99-2.96,9.63-2.12,12.59,1.87c2.96,3.99,2.12,9.63-1.87,12.59L100,401.57v237.09l22.15-16.33c4-2.95,9.63-2.1,12.58,1.91 c2.95,4,2.1,9.64-1.91,12.58L100,661.03v40.92l12.46-9.19c4-2.95,9.63-2.1,12.58,1.91c2.95,4,2.1,9.64-1.91,12.58L100,724.31 V894.5v78.3l11.04-8.14c4-2.95,9.64-2.1,12.58,1.91s2.1,9.64-1.91,12.58L100,995.16v131.34c0,22.09,17.91,40,40,40h20.43 l43.17-31.82c4-2.95,9.64-2.1,12.58,1.91s2.1,9.64-1.91,12.58l-23.51,17.33h307.58l26.37-19.44c4-2.95,9.63-2.1,12.58,1.91 c2.95,4,2.1,9.64-1.91,12.58l-6.71,4.95h273.1l38.99-28.74c4-2.95,9.64-2.1,12.58,1.91s2.1,9.64-1.91,12.58l-19.33,14.25H860 c22.09,0,40-17.91,40-40v-69.54L887.36,1066.27z"/>
			<path fill="#292fd6" d="M45.62,358.14c-2.76,0-5.49-1.27-7.25-3.66c-2.95-4-2.1-9.64,1.91-12.58l108.69-80.11c4-2.95,9.63-2.1,12.58,1.91 c2.95,4,2.1,9.64-1.91,12.58L50.96,356.39C49.35,357.57,47.48,358.14,45.62,358.14z"/>
			<path fill="#292fd6" d="M16.49,706.72c-2.76,0-5.49-1.27-7.25-3.66c-2.95-4-2.1-9.64,1.91-12.58l108.69-80.11c4-2.95,9.64-2.1,12.58,1.91 s2.1,9.64-1.91,12.58L21.83,704.97C20.22,706.15,18.35,706.72,16.49,706.72z"/>
			<path fill="#292fd6" d="M97.94,1219.07c-2.76,0-5.49-1.27-7.25-3.66c-2.95-4-2.1-9.64,1.91-12.58l108.69-80.11c4-2.95,9.63-2.1,12.58,1.91 c2.95,4,2.1,9.64-1.91,12.58l-108.69,80.11C101.67,1218.5,99.8,1219.07,97.94,1219.07z"/>
			<path fill="#292fd6" d="M875.11,789.68c-2.76,0-5.49-1.27-7.25-3.66c-2.95-4-2.1-9.64,1.91-12.58l108.69-80.11c4-2.95,9.64-2.1,12.58,1.91 s2.1,9.64-1.91,12.58l-108.69,80.11C878.83,789.11,876.96,789.68,875.11,789.68z"/>
			<path fill="#292fd6" d="M419.06,1231.45c-2.76,0-5.49-1.27-7.25-3.66c-2.95-4-2.1-9.64,1.91-12.58l108.69-80.11c4-2.95,9.64-2.1,12.58,1.91 s2.1,9.64-1.91,12.58l-108.69,80.11C422.79,1230.88,420.92,1231.45,419.06,1231.45z"/>
			<path fill="#292fd6" d="M831.84,425.18c-2.76,0-5.49-1.27-7.25-3.66c-2.95-4-2.1-9.64,1.91-12.58l99.11-73.05c4-2.95,9.63-2.1,12.58,1.91 c2.95,4,2.1,9.64-1.91,12.58l-99.11,73.05C835.56,424.61,833.69,425.18,831.84,425.18z"/>
			<path fill="#292fd6" d="M890.65,452.47c-2.76,0-5.49-1.27-7.25-3.66c-2.95-4-2.1-9.64,1.91-12.58l74.04-54.57c4-2.95,9.63-2.1,12.58,1.91 c2.95,4,2.1,9.64-1.91,12.58l-74.04,54.57C894.38,451.9,892.5,452.47,890.65,452.47z"/>
			<path fill="#292fd6" d="M72.96,728.38c-2.76,0-5.49-1.27-7.25-3.66c-2.95-4-2.1-9.64,1.91-12.58l42.53-31.35c4-2.95,9.64-2.1,12.58,1.91 c2.95,4,2.1,9.64-1.91,12.58L78.3,726.63C76.69,727.81,74.82,728.38,72.96,728.38z"/>
			<path fill="#292fd6" d="M45.9,1206.31c-2.76,0-5.49-1.27-7.25-3.66c-2.95-4-2.1-9.64,1.91-12.58l42.53-31.35c4-2.95,9.63-2.1,12.58,1.91 c2.95,4,2.1,9.64-1.91,12.58l-42.53,31.35C49.63,1205.74,47.75,1206.31,45.9,1206.31z"/>
			<path fill="#292fd6" d="M341.86,160.76c-2.76,0-5.49-1.27-7.25-3.66c-2.95-4-2.1-9.64,1.91-12.58L445.21,64.4c4-2.95,9.64-2.1,12.58,1.91 c2.95,4,2.1,9.64-1.91,12.58l-108.69,80.11C345.58,160.19,343.71,160.76,341.86,160.76z"/>
			<path fill="#292fd6" d="M83.39,398c-2.75,0-5.47-1.26-7.24-3.64c-2.96-3.99-2.12-9.63,1.88-12.59L116,353.63c3.99-2.96,9.63-2.12,12.59,1.88 c2.96,3.99,2.12,9.63-1.88,12.59l-37.98,28.14C87.13,397.42,85.25,398,83.39,398z"/>
			<path fill="#292fd6" d="M758.34,1205.04c-2.76,0-5.49-1.27-7.25-3.66c-2.95-4-2.1-9.64,1.91-12.58l85.48-63c4-2.95,9.63-2.1,12.58,1.91 c2.95,4,2.1,9.64-1.91,12.58l-85.48,63C762.06,1204.47,760.19,1205.04,758.34,1205.04z"/>
			<path fill="#292fd6" d="M407.03,180.79c-2.76,0-5.49-1.27-7.25-3.66c-2.95-4-2.1-9.64,1.91-12.58l61.85-45.59c4-2.95,9.64-2.1,12.58,1.91 c2.95,4,2.1,9.64-1.91,12.58l-61.85,45.59C410.76,180.22,408.89,180.79,407.03,180.79z"/>
			<path fill="#292fd6" d="M767.87,97.2c-2.76,0-5.49-1.27-7.25-3.66c-2.95-4-2.1-9.64,1.91-12.58l61.85-45.59c4-2.95,9.64-2.1,12.58,1.91 s2.1,9.64-1.91,12.58L773.2,95.44C771.6,96.62,769.72,97.2,767.87,97.2z"/>
			<path fill="#292fd6" d="M173.3,137.37c-2.76,0-5.49-1.27-7.25-3.66c-2.95-4-2.1-9.64,1.91-12.58l61.85-45.59c4-2.95,9.63-2.1,12.58,1.91 c2.95,4,2.1,9.64-1.91,12.58l-61.85,45.59C177.03,136.8,175.16,137.37,173.3,137.37z"/>
			<path fill="#292fd6" d="M879.71,1056.06c-2.76,0-5.49-1.27-7.25-3.66c-2.95-4-2.1-9.64,1.91-12.58l94.79-69.87c4-2.95,9.63-2.1,12.58,1.91 c2.95,4,2.1,9.64-1.91,12.58l-94.79,69.87C883.44,1055.49,881.57,1056.06,879.71,1056.06z"/>
			<path fill="#292fd6" d="M739.72,186.9c-2.76,0-5.49-1.27-7.25-3.66c-2.95-4-2.1-9.64,1.91-12.58l90-66.33c4-2.95,9.64-2.1,12.58,1.91 s2.1,9.64-1.91,12.58l-90,66.33C743.45,186.33,741.58,186.9,739.72,186.9z"/>
			<path fill="#292fd6" d="M520.45,97.2c-2.76,0-5.49-1.27-7.25-3.66c-2.95-4-2.1-9.64,1.91-12.58L536,65.55c4-2.95,9.64-2.1,12.58,1.91 c2.95,4,2.1,9.64-1.91,12.58l-20.89,15.4C524.18,96.62,522.31,97.2,520.45,97.2z"/>
			<path fill="#292fd6" d="M881.4,714.82c-2.76,0-5.49-1.27-7.25-3.66c-2.95-4-2.1-9.64,1.91-12.58l42.44-31.28c4-2.95,9.63-2.1,12.58,1.91 c2.95,4,2.1,9.64-1.91,12.58l-42.44,31.28C885.12,714.25,883.25,714.82,881.4,714.82z"/>
			<path fill="#292fd6" d="M71.63,1000.22c-2.76,0-5.49-1.27-7.25-3.66c-2.95-4-2.1-9.64,1.91-12.58l42.44-31.28c4-2.95,9.64-2.1,12.58,1.91 s2.1,9.64-1.91,12.58l-42.44,31.28C75.36,999.65,73.49,1000.22,71.63,1000.22z"/>
			<path fill="#292fd6" d="M516.74,1227.53c-2.76,0-5.49-1.27-7.25-3.66c-2.95-4-2.1-9.64,1.91-12.58l20.89-15.4c4-2.95,9.63-2.1,12.58,1.91 c2.95,4,2.1,9.64-1.91,12.58l-20.89,15.4C520.46,1226.95,518.59,1227.53,516.74,1227.53z"/>
			<text fill="#ffffff" font-size="90" x="50%" y="1038" dominant-baseline="middle" text-anchor="middle" font-family="sans-serif" font-weight="600">Scan me</text><rect x="198" y="232" height="603" width="604" clip-path="url('#clip-path-background-color')" fill="#ffffff"/><rect x="239" y="272" height="522" width="522" clip-path="url('#clip-path-dot-color')" fill="#000000"/><rect x="239" y="272" height="126" width="126" clip-path="url('#clip-path-corners-square-color-0-0')" fill="#000000"/><rect x="275" y="308" height="54" width="54" clip-path="url('#clip-path-corners-dot-color-0-0')" fill="#000000"/><rect x="635" y="272" height="126" width="126" clip-path="url('#clip-path-corners-square-color-1-0')" fill="#000000"/><rect x="671" y="308" height="54" width="54" clip-path="url('#clip-path-corners-dot-color-1-0')" fill="#000000"/><rect x="239" y="668" height="126" width="126" clip-path="url('#clip-path-corners-square-color-0-1')" fill="#000000"/><rect x="275" y="704" height="54" width="54" clip-path="url('#clip-path-corners-dot-color-0-1')" fill="#000000"/></svg>